/* XPM */
static char *result[] = {
/* columns rows colors chars-per-pixel */
"80 80 107 2 ",
"   c #FF2A2A",
".  c #FF2B2B",
"X  c #FF2C2C",
"o  c #FF2D2D",
"O  c #FF2E2E",
"+  c #FF2F2F",
"@  c #FF3030",
"#  c #FF3131",
"$  c #FF3232",
"%  c #FF3333",
"&  c #FF3434",
"*  c #FF3535",
"=  c #FF3636",
"-  c #FF3737",
";  c #FF3838",
":  c #FF3939",
">  c #FF3A3A",
",  c #FF3B3B",
"<  c #FF3C3C",
"1  c #FF3D3D",
"2  c #FF3E3E",
"3  c #FF3F3F",
"4  c #FF4040",
"5  c #FF4141",
"6  c #FF4242",
"7  c #FF4343",
"8  c #FF4444",
"9  c #FF4545",
"0  c #FF4646",
"q  c #FF4747",
"w  c #FF4848",
"e  c #FF4949",
"r  c #FF4A4A",
"t  c #FF4B4B",
"y  c #FF4C4C",
"u  c #FF4D4D",
"i  c #FF4E4E",
"p  c #FF4F4F",
"a  c #FF5050",
"s  c #FF5151",
"d  c #FF5252",
"f  c #FF5353",
"g  c #FF5454",
"h  c #FF5555",
"j  c #FF5656",
"k  c #FF5757",
"l  c #FF5858",
"z  c #FF5959",
"x  c #FF5A5A",
"c  c #FF5B5B",
"v  c #FF5C5C",
"b  c #FF5D5D",
"n  c #FF5E5E",
"m  c #FF5F5F",
"M  c #FF6060",
"N  c #FF6161",
"B  c #FF6262",
"V  c #FF6363",
"C  c #FF6464",
"Z  c #FF6565",
"A  c #FF6666",
"S  c #FF6767",
"D  c #FF6868",
"F  c #FF6969",
"G  c #FF6A6A",
"H  c #FF6B6B",
"J  c #FF6C6C",
"K  c #FF6D6D",
"L  c #FF6E6E",
"P  c #FF6F6F",
"I  c #FF7070",
"U  c #FF7171",
"Y  c #FF7272",
"T  c #FF7373",
"R  c #FF7474",
"E  c #FF7575",
"W  c #FF7676",
"Q  c #FF7878",
"!  c #FF7979",
"~  c #FF7A7A",
"^  c #FF7B7B",
"/  c #FF7C7C",
"(  c #FF7E7E",
")  c #FF7F7F",
"_  c #FF8080",
"`  c #FF8181",
"'  c #FF8282",
"]  c #FF8383",
"[  c #FF8484",
"{  c #FF8585",
"}  c #FF8686",
"|  c #FF8787",
" . c #FF8888",
".. c #FF8989",
"X. c #FF8A8A",
"o. c #FF8C8C",
"O. c #FF8D8D",
"+. c #FF8E8E",
"@. c #FF8F8F",
"#. c #FF9090",
"$. c #FF9191",
"%. c #FF9292",
"&. c #FF9393",
"*. c #FF9494",
"=. c #FF9595",
"-. c #FFA5A5",
";. c None",
/* pixels */
";.;.;.;.;.;.;.;.;.;.;.;.;.;.;.;.;.;.;.;.;.;.;.;.;.;.;.~ i - & 0 K ;.;.;.;.;.;.;.;.;.;.;.;.;.;.;.;.;.;.;.;.;.;.;.;.;.;.;.;.;.;.;.;.;.;.;.;.;.;.;.;.;.;.;.;.;.;.;.",
";.;.;.;.;.;.;.;.;.;.;.;.;.;.;.;.;.;.;.;.;.;.;.;.;._ 2 + o O O o O ; G ;.;.;.;.;.;.;.;.;.;.;.;.;.;.;.;.;.;.;.;.;.;.;.;.;.;.;.;.;.;.;.;.;.;.;.;.;.;.;.;.;.;.;.;.;.",
";.;.;.;.;.;.;.;.;.;.;.;.;.;.;.;.;.;.;.;.;.;.;.;.m + O 2 C ' [ J 0 + o t ;.;.;.;.;.;.;.;.;.;.;.;.;.;.;.;.;.;.;.;.;.;.;.;.;.;.;.;.;.;.;.;.;.;.;.;.;.;.;.;.;.;.;.;.",
";.;.;.;.;.;.;.;.;.;.;.;.;.;.;.;.;.;.;.;.;.;.;.v O $ K ;.;.;.;.;.;.[ : O u ;.;.;.;.;.;.;.;.;.;.;.;.;.;.;.;.;.;.;.;.;.;.;.;.;.;.;.;.;.;.;.;.;.;.;.;.;.;.;.;.;.;.;.",
";.;.;.;.;.;.;.;.;.;.;.;.;.;.;.;.;.;.;.;.;.;.b O $ _ ;.;.;.;.;.;.;.;.;.- O E ;.;.;.;.;.;.;.;.;.;.;.;.;.;.;.;.;.;.;.;.;.;.;.;.;.;.;.;.;.;.;.;.;.;.;.;.;.;.;.;.;.;.",
";.;.;.;.;.;.;.;.;.;.;.;.;.;.;.;.;.;.;.;.;.v O $ _ ;.;.;.;.;.;.;.;.;.;.~ O 1 ;.;.;.;.;.;.;.;.;.;.;.;.;.;.;.;.;.;.;.;.;.;.;.;.;.;.;.;.;.;.;.;.;.;.;.;.;.;.;.;.;.;.",
";.;.;.;.;.;.;.;.;.;.;.;.;.;.;.;.;.;.;.;.v O $ _ ;.;.;.;.;.;.;.;.;.;.;.;.1 O ;.;.;.;.;.;.;.;.;.;.;.;.;.;.;.;.;.;.;.;.;.;.;.;.;.;.;.;.;.;.;.;.;.;.;.;.;.;.;.;.;.;.",
";.;.;.;.;.;.;.;.;.;.;.;.;.;.;.;.;.;.;.k O $ _ ;.;.;.;.;.;.;.;.;.;.;.;.;.k X U ;.;.;.;.;.;.;.;.;.;.;.;.;.;.;.;.;.;.;.;.;.;.;.;.;.;.;.;.;.;.;.;.;.;.;.;.;.;.;.;.;.",
";.;.;.;.;.;.;.;.;.;.;.;.;.;.;.;.;.;.l O % ` ;.;.;.;.;.;.;.;.;.;.;.;.;.;.S . V ;.;.;.;.;.;.;.;.;.;.;.;.;.;.;.;.;.;.;.;.;.;.;.;.;.;.;.;.;.;.;.;.;.;.;.;.;.;.;.;.;.",
";.;.;.;.;.;.;.;.;.;.;.;.;.;.;.;.;.k O % } ;.;.;.;.;.;.;.;.;.;.;.;.;.;.;.m . G ;.;.;.;.;.;.;.;.;.;.;.;.;.;.;.;.;.;.;.;.;.;.;.;.;.;.;.;.;.;.;.;.;.;.;.;.;.;.;.;.;.",
";.;.;.;.;.;.;.;.;.;.;.;.;.;.;.;.l O % } ;.;.;.;.;.;.;.;.;.;.;.;.;.;.;.;.9 o } ;.;.;.;.;.;.;.;.;.;.;.;.;.;.;.;.;.;.;.;.;.;.;.;.;.;.;.;.;.;.;.;.;.;.;.;.;.;.;.;.;.",
";.;.;.;.;.;.;.;.;.;.;.;.;.;.;.k O % } ;.;.;.;.;.;.;.;.;.;.;.;.;.;.;.;.;.# * ;.;.;.;.;.;.;.;.;.;.;.;.;.;.;.;.;.;.;.;.;.;.;.;.;.;.;.;.;.;.;.;.;.;.;.;.;.;.;.;.;.;.",
";.;.;.;.;.;.;.;.;.;.;.;.;.;.l O % } ;.;.;.;.;.;.;.;.;.;.;.;.;.;.;.;.;.0 o x ;.;.;.;.;.;.;.;.;.;.;.;.;.;.;.;.;.;.;.;.;.;.;.;.;.;.;.;.;.;.;.;.;.;.;.;.;.;.;.;.;.;.",
";.;.;.;.;.;.;.;.;.;.;.;.;.k O % } ;.;.;.;.;.;.;.;.;.;.;.;.;.;.;.;.;.d O : ;.;.;.;.;.;.;.;.;.;.;.;.;.;.;.;.;.;.;.;.;.;.;.;.;.;.;.;.;.;.;.;.;.;.;.;.;.;.;.;.;.;.;.",
";.;.;.;.;.;.;.;.;.;.;.;.l O % } ;.;.;.;.;.;.;.;.;.;.;.;.;.;.;.;.;.d O * ;.;.;.;.;.;.;.;.;.;.;.;.;.;.;.;.;.;.;.;.;.;.;.;.;.;.;.;.;.;.;.;.;.;.;.;.;.;.;.;.;.;.;.;.",
";.;.;.;.;.;.;.;.;.;.;.k O % } ;.;.;.;.;.;.;.;.;.;.;.;.;.;.;.;.;.d O & | ;.;.;.;.;.;.;.;.;.;.;.;.;.;.;.;.;.;.;.;.;.;.;.;.;.;.;.;.;.;.;.;.;.;.;.;.;.;.;.;.;.;.;.;.",
";.;.;.;.;.;.;.;.;.;.l O % } ;.;.;.;.;.;.;.;.;.;.;.;.;.;.;.;.;.f + # ; Z I P P P P P R ! ] ;.;.;.;.;.;.;.;.;.;.;.;.;.;.;.;.;.;.;.;.;.;.;.;.;.;.;.;.;.;.;.;.;.;.;.",
";.;.;.;.;.;.;.;.;.k O % } ;.;.;.;.;.;.;.;.;.;.;.;.;.;.;.;.;.@.  O O O X . . . . . . . . . O # = 0 m | ;.;.;.;.;.;.;.;.;.;.;.;.;.;.;.;.;.;.;.;.;.;.;.;.;.;.;.;.;.",
";.;.;.;.;.;.;.;.l O % } ;.;.;.;.;.;.;.;.;.;.;.;.;.;.;.;.;.;.;.D b b b b b b b b b b v k p 8 ; $ o X o * y ( ;.;.;.;.;.;.;.;.;.;.;.;.;.;.;.;.;.;.;.;.;.;.;.;.;.;.",
";.;.;.;.;.;.;.v O % } ;.;.;.;.;.;.;.;.;.;.;.;.;.;.;.;.;.;.;.;.;.;.;.;.;.;.;.;.;.;.;.;.;.;.;.;.;.X.Z 9 $ X o - M ;.;.;.;.;.;.;.;.;.;.;.;.;.;.;.;.;.;.;.;.;.;.;.;.",
";.;.;.;.;.;.' + % } ;.;.;.;.;.;.;.;.;.;.;.;.;.;.;.;.;.;.;.;.;.;.;.;.;.;.;.;.;.;.;.;.;.;.;.;.;.;.;.;.;.;.T 8 + o % c ;.;.;.;.;.;.;.;.;.;.;.;.;.;.;.;.;.;.;.;.;.;.",
";.;.;.;.;.;.4 O K ;.;.;.;.;.;.;.;.;.;.;.;.;.;.;.;.;.;.;.;.;.;.;.;.;.;.;.;.;.;.;.;.;.;.;.;.;.;.;.;.;.;.;.;.;.*.s # o * K ;.;.;.;.;.;.;.;.;.;.;.;.;.;.;.;.;.;.;.;.",
";.;.;.;.;.*.O , ;.;.;.;.;.;.;.;.;.;.;.;.;.;.;.;.;.;.;.;.;.;.;.;.;.;.;.;.;.;.;.;.;.;.;.;.;.;.;.;.;.;.;.;.;.;.;.;.;.y + O 8 ;.;.;.;.;.;.;.;.;.;.;.;.;.;.;.;.;.;.;.",
";.;.;.;.;.J X c ;.;.;.;.;.;.;.;.;.;.;.;.;.;.;.;.;.;.;.;.;.;.;.;.;.;.;.;.;.;.;.;.;.;.;.;.;.;.;.;.;.;.;.;.;.;.;.;.;.;.] , o & W ;.;.;.;.;.;.;.;.;.;.;.;.;.;.;.;.;.",
";.;.;.;.;.n . T ;.;.;.;.;.;.;.;.;.;.;.;.;.;.;.;.;.;.;.;.;.;.;.;.;.;.;.;.;.;.;.;.;.;.;.;.;.;.;.;.;.;.;.;.;.;.;.;.;.;.;.;.g + + b ;.;.;.;.;.;.;.;.;.;.;.;.;.;.;.;.",
";.;.;.;.;.m . U ;.;.;.;.;.;.;.;.;.;.;.;.;.;.;.;.;.;.;.;.;.;.;.;.;.;.;.;.;.;.;.;.;.;.;.;.;.;.;.;.;.;.;.;.;.;.;.;.;.;.;.;.;.U $ O a ;.;.;.;.;.;.;.;.;.;.;.;.;.;.;.",
";.;.;.;.;.P X k ;.;.;.;.;.;.;.;.;.;.;.;.;.;.;.;.;.;.;.;.;.;.;.;.;.;.;.;.;.;.;.;.;.;.;.;.;.;.;.;.;.;.;.;.;.;.;.;.;.;.;.;.;.;...* O p ;.;.;.;.;.;.;.;.;.;.;.;.;.;.",
";.;.;.;.;.;.+ : ;.;.;.;.;.;.;.;.;.;.;.;.;.;.;.;.;.;.;.;.;.;.;.;.;.;.;.;.;.;.;.;.;.;.;.;.;.;.;.;.;.;.;.;.;.;.;.;.;.;.;.;.;.;.;.*.- O s ;.;.;.;.;.;.;.;.;.;.;.;.;.",
";.;.;.;.;.;.8 O V ;.;.;.;.;.;.;.;.;.;.;.;.;.;.;.;.;.;.;.;.;.;.;.;.;.;.;.;.;.;.;.;.;.;.;.;.;.;.;.;.;.;.;.;.;.;.;.;.;.;.;.;.;.;.;.*.* O n ;.;.;.;.;.;.;.;.;.;.;.;.",
";.;.;.;.;.;.+.@ @ ! ;.;.;.;.;.;.;.;.;.;.;.;.;.;.;.;.;.;.;.;.;.;.;.;.;.;.;.;.;.;.;.;.;.;.;.;.;.;.;.;.;.;.;.;.;.;.;.;.;.;.;.;.;.;.;. .$ + Q ;.;.;.;.;.;.;.;.;.;.;.",
";.;.;.;.;.;.;.D O # ~ ;.;.;.;.;.;.;.;.;.;.;.;.;.;.;.;.;.;.;.;.;.;.;.;.;.;.;.;.;.;.;.;.;.;.;.;.;.;.;.;.;.;.;.;.;.;.;.;.;.;.;.;.;.;.;.I + & ;.;.;.;.;.;.;.;.;.;.;.",
";.;.;.;.;.;.;.;.B + # ~ ;.;.;.;.;.;.;.;.;.;.;.;.;.;.;.;.;.;.;.x d d d d d d d d d d f x G  .;.;.;.;.;.;.;.;.;.;.;.;.;.;.;.;.;.;.;.;.;.d o q ;.;.;.;.;.;.;.;.;.;.",
";.;.;.;.;.;.;.;.;.N + # ~ ;.;.;.;.;.;.;.;.;.;.;.;.;.;.;.;.;.#.. + + + X . . . . . . . . X o $ 7 J ;.;.;.;.;.;.;.;.;.;.;.;.;.;.;.;.;.;.;.: O T ;.;.;.;.;.;.;.;.;.",
";.;.;.;.;.;.;.;.;.;.B + # ~ ;.;.;.;.;.;.;.;.;.;.;.;.;.;.;.;.;.v + @ > W | { { { } [ ( T m q = o X & x ;.;.;.;.;.;.;.;.;.;.;.;.;.;.;.;.;./ O - ;.;.;.;.;.;.;.;.;.",
";.;.;.;.;.;.;.;.;.;.;.N + # ~ ;.;.;.;.;.;.;.;.;.;.;.;.;.;.;.;.;.v + & ] ;.;.;.;.;.;.;.;.;.;.;.[ u # o = Y ;.;.;.;.;.;.;.;.;.;.;.;.;.;.;.;.q o C ;.;.;.;.;.;.;.;.",
";.;.;.;.;.;.;.;.;.;.;.;.B + # Q ;.;.;.;.;.;.;.;.;.;.;.;.;.;.;.;.;.v + $ { ;.;.;.;.;.;.;.;.;.;.;.;.;.u + O a ;.;.;.;.;.;.;.;.;.;.;.;.;.;.;.+.+ - ;.;.;.;.;.;.;.;.",
";.;.;.;.;.;.;.;.;.;.;.;.;.N + @ T ;.;.;.;.;.;.;.;.;.;.;.;.;.;.;.;.;.v + * ;.;.;.;.;.;.;.;.;.;.;.;.;.;.! * O 8 ;.;.;.;.;.;.;.;.;.;.;.;.;.;.;.q o I ;.;.;.;.;.;.;.",
";.;.;.;.;.;.;.;.;.;.;.;.;.;.B + @ T ;.;.;.;.;.;.;.;.;.;.;.;.;.;.;.;.;.i o f ;.;.;.;.;.;.;.;.;.;.;.;.;.;.;.< O 0 ;.;.;.;.;.;.;.;.;.;.;.;.;.;.` O 4 ;.;.;.;.;.;.;.",
";.;.;.;.;.;.;.;.;.;.;.;.;.;.;.N + @ T ;.;.;.;.;.;.;.;.;.;.;.;.;.;.;.;.;.$ % ;.;.;.;.;.;.;.;.;.;.;.;.;.;.;.;.< O g ;.;.;.;.;.;.;.;.;.;.;.;.;.;.; + ;.;.;.;.;.;.;.",
";.;.;.;.;.;.;.;.;.;.;.;.;.;.;.;.B + @ T ;.;.;.;.;.;.;.;.;.;.;.;.;.;.;.;.w o ' ;.;.;.;.;.;.;.;.;.;.;.;.;.;.;.;.& O ^ ;.;.;.;.;.;.;.;.;.;.;.;.;.z X A ;.;.;.;.;.;.",
";.;.;.;.;.;.;.;.;.;.;.;.;.;.;.;.;.N + @ T ;.;.;.;.;.;.;.;.;.;.;.;.;.;.;.N . S ;.;.;.;.;.;.;.;.;.;.;.;.;.;.;.;.Y O > ;.;.;.;.;.;.;.;.;.;.;.;.;. .o 8 ;.;.;.;.;.;.",
";.;.;.;.;.;.;.;.;.;.;.;.;.;.;.;.;.;.B + @ T ;.;.;.;.;.;.;.;.;.;.;.;.;.;.A . V ;.;.;.;.;.;.;.;.;.;.;.;.;.;.;.;.;.9 o G ;.;.;.;.;.;.;.;.;.;.;.;.;.& & ;.;.;.;.;.;.",
";.;.;.;.;.;.;.;.;.;.;.;.;.;.;.;.;.;.;.B + @ T ;.;.;.;.;.;.;.;.;.;.;.;.;.h X R ;.;.;.;.;.;.;.;.;.;.;.;.;.;.;.;.;.} O , ;.;.;.;.;.;.;.;.;.;.;.;.;.6 o %.;.;.;.;.;.",
";.;.;.;.;.;.;.;.;.;.;.;.;.;.;.;.;.;.;.;.S + @ T ;.;.;.;.;.;.;.;.;.;.;.;.> + ;.;.;.;.;.;.;.;.;.;.;.;.;.;.;.;.;.;.;.1 O +.;.;.;.;.;.;.;.;.;.;.;.;.h X T ;.;.;.;.;.",
";.;.;.;.;.;.;.;.;.;.;.;.;.;.;.;.;.;.;.;.;.S + @ T ;.;.;.;.;.;.;.;.;.;.P O 4 ;.;.;.;.;.;.;.;.;.;.;.;.;.;.;.;.;.;.;.n X V ;.;.;.;.;.;.;.;.;.;.;.;.J . n ;.;.;.;.;.",
";.;.;.;.;.;.;.;.;.;.;.;.;.;.;.;.;.;.;.;.;.;.D + @ T ;.;.;.;.;.;.;.;.;.& O ) ;.;.;.;.;.;.;.;.;.;.;.;.;.;.;.;.;.;.;.{ o w ;.;.;.;.;.;.;.;.;.;.;.;.( . f ;.;.;.;.;.",
";.;.;.;.;.;.;.;.;.;.;.;.;.;.;.;.;.;.;.;.;.;.;.S + @ n ;.;.;.;.;.;.T * O j ;.;.;.;.;.;.;.;.;.;.;.;.;.;.;.;.;.;.;.;.;.O 2 ;.;.;.;.;.;.;.;.;.;.;.;.X.X y ;.;.;.;.;.",
";.;.;.;.;.;.;.;.;.;.;.;.;.;.;.;.;.;.;.;.;.;.;.;.L # o - g L U v 1 O O j ;.;.;.;.;.;.;.;.;.;.;.;.;.;.;.;.;.;.;.;.;.;.# : ;.;.;.;.;.;.;.;.;.;.;.;.#.o r ;.;.;.;.;.",
";.;.;.;.;.;.;.;.;.;.;.;.;.;.;.;.;.;.;.;.;.;.;.;.;.;.q @ X X X . O 2 ^ ;.;.;.;.;.;.;.;.;.;.;.;.;.;.;.;.;.;.;.;.;.;.;.# ; ;.;.;.;.;.;.;.;.;.;.;.;.#.o r ;.;.;.;.;.",
";.;.;.;.;.;.;.;.;.;.;.;.;.;.;.;.;.;.;.;.;.;.;.;.;.;.;.;.R M n K ;.;.;.;.;.;.;.;.;.;.;.;.;.;.;.;.;.;.;.;.;.;.;.;.;.;.+ < ;.;.;.;.;.;.;.;.;.;.;.;.o.X t ;.;.;.;.;.",
";.;.;.;.;.;.;.;.;.;.;.;.;.;.;.;.;.;.;.;.;.;.;.;.;.;.;.;.;.;.;.;.;.;.;.;.;.;.;.;.;.;.;.;.;.;.;.;.;.;.;.;.;.;.;.;.;.+.o 8 ;.;.;.;.;.;.;.;.;.;.;.;.` . a ;.;.;.;.;.",
";.;.;.;.;.;.;.;.;.;.;.;.;.;.;.;.;.;.;.;.;.;.;.;.;.;.;.;.;.;.;.;.;.;.;.;.;.;.;.;.;.;.;.;.;.;.;.;.;.;.;.;.;.;.;.;.;.F X z ;.;.;.;.;.;.;.;.;.;.;.;.U . x ;.;.;.;.;.",
";.;.;.;.;.;.;.;.;.;.;.;.;.;.;.;.;.;.;.;.;.;.;.;.;.;.;.;.;.;.;.;.;.;.;.;.;.;.;.;.;.;.;.;.;.;.;.;.;.;.;.;.;.;.;.;.;.8 o _ ;.;.;.;.;.;.;.;.;.;.;.;.v X K ;.;.;.;.;.",
";.;.;.;.;.;.;.;.;.;.;.;.;.;.;.;.;.;.;.;.;.;.;.;.;.;.;.;.;.;.;.;.;.;.;.;.;.;.;.;.;.;.;.;.;.;.;.;.;.;.;.;.;.;.;.;.;.@ * ;.;.;.;.;.;.;.;.;.;.;.;.;.0 o ..;.;.;.;.;.",
";.;.;.;.;.;.;.;.;.;.;.;.;.;.;.;.;.;.;.;.;.;.;.;.;.;.;.;.;.;.;.;.;.;.;.;.;.;.;.;.;.;.;.;.;.;.;.;.;.;.;.;.;.;.;.;.f o z ;.;.;.;.;.;.;.;.;.;.;.;.;.- # ;.;.;.;.;.;.",
";.;.;.;.;.;.;.;.;.;.;.;.;.;.;.;.;.;.;.;.;.;.;.;.;.;.;.;.;.;.;.;.;.;.;.;.;.;.;.;.;.;.;.;.;.;.;.;.;.;.;.;.;.;.;.O.@ % ;.;.;.;.;.;.;.;.;.;.;.;.;.*.O 3 ;.;.;.;.;.;.",
";.;.;.;.;.;.;.;.;.;.;.;.;.;.;.;.;.;.;.;.;.;.;.;.;.;.;.;.;.;.;.;.;.;.;.;.;.;.;.;.;.;.;.;.;.;.;.;.;.;.;.;.;.;.;.1 o V ;.;.;.;.;.;.;.;.;.;.;.;.;.C X x ;.;.;.;.;.;.",
";.;.;.;.;.;.;.;.;.;.;.;.;.;.;.;.;.;.;.;.;.;.;.;.;.;.;.;.;.;.;.;.;.;.;.;.;.;.;.;.;.;.;.;.;.;.;.;.;.;.;.;.;.;.y O 6 ;.;.;.;.;.;.;.;.;.;.;.;.;.;.3 O X.;.;.;.;.;.;.",
";.;.;.;.;.;.;.;.;.;.;.;.;.;.;.;.;.;.;.;.;.;.;.;.;.;.;.;.;.;.;.;.;.;.;.;.;.;.;.;.;.;.;.;.;.;.;.;.;.;.;.;.;.i O - ;.;.;.;.;.;.;.;.;.;.;.;.;.;.&.+ : ;.;.;.;.;.;.;.",
";.;.;.;.;.;.;.;.;.;.;.;.;.;.;.;.;.;.;.;.;.;.;.;.;.;.;.;.;.;.;.;.;.;.;.;.;.;.;.;.;.;.;.;.;.;.;.;.;.;.;.;.7 O = =.;.;.;.;.;.;.;.;.;.;.;.;.;.;.g X M ;.;.;.;.;.;.;.",
";.;.;.;.;.;.;.;.;.;.;.;.;.;.;.;.;.;.;.;.;.;.;.;.;.;.;.;.;.;.;.;.;.;.;.;.;.;.;.;.;.;.;.;.;.;.;.;.;.;.K * o , ;.;.;.;.;.;.;.;.;.;.;.;.;.;.;.;.$ $ ;.;.;.;.;.;.;.;.",
";.;.;.;.;.;.;.;.;.;.;.;.;.;.;.;.;.;.;.;.;.;.;.;.;.;.;.;.;.;.;.;.;.;.;.;.;.;.;.;.;.;.;.;.;.;.;.;.I < O + a ;.;.;.;.;.;.;.;.;.;.;.;.;.;.;.;.j o f ;.;.;.;.;.;.;.;.",
";.;.;.;.;.;.;.;.;.;.;.;.;.;.;.;.;.;.;.;.;.;.;.;.;.;.;.;.;.;.;.;.;.;.;.;.;.;.;.;.;.;.;.;...G r & o O 3 ' ;.;.;.;.;.;.;.;.;.;.;.;.;.;.;.;.;.# $ ;.;.;.;.;.;.;.;.;.",
";.;.;.;.;.;.^ > % % % % % % % % % % % % % % % % % % % % % % % % % % % % % % % % % % $ @ X . o % e ` ;.;.;.;.;.;.;.;.;.;.;.;.;.;.;.;.;.;.9 o b ;.;.;.;.;.;.;.;.;.",
";.;.;.;.;.;.@ @ & * * * * * * * * * * * * * * * * * * * * * * * * * * * * * * * * * - 1 e v ( ;.;.;.;.;.;.;.;.;.;.;.;.;.;.;.;.;.;.;.;.D O > ;.;.;.;.;.;.;.;.;.;.",
";.;.;.;.;.B X j ;.;.;.;.;.;.;.;.;.;.;.;.;.;.;.;.;.;.;.;.;.;.;.;.;.;.;.;.;.;.;.;.;.;.;.;.;.;.;.;.;.;.;.;.;.;.;.;.;.;.;.;.;.;.;.;.;.;.O.# @ [ ;.;.;.;.;.;.;.;.;.;.",
";.;.;.;.;.v . W ;.;.;.;.;.;.;.;.;.;.;.;.;.;.;.;.;.;.;.;.;.;.;.;.;.;.;.;.;.;.;.;.;.;.;.;.;.;.;.;.;.;.;.;.;.;.;.;.;.;.;.;.;.;.;.;.;.;.: O b ;.;.;.;.;.;.;.;.;.;.;.",
";.;.;.;.;.b . W ;.;.;.;.;.;.;.;.;.;.;.;.;.;.;.;.;.;.;.;.;.;.;.;.;.;.;.;.;.;.;.;.;.;.;.;.;.;.;.;.;.;.;.;.;.;.;.;.;.;.;.;.;.;.;.;.;.5 O e ;.;.;.;.;.;.;.;.;.;.;.;.",
";.;.;.;.;.b . W ;.;.;.;.;.;.;.;.;.;.;.;.;.;.;.;.;.;.;.;.;.;.;.;.;.;.;.;.;.;.;.;.;.;.;.;.;.;.;.;.;.;.;.;.;.;.;.;.;.;.;.;.;.;.;.;.0 O 2 ;.;.;.;.;.;.;.;.;.;.;.;.;.",
";.;.;.;.;.b . W ;.;.;.;.;.;.;.;.;.;.;.;.;.;.;.;.;.;.;.;.;.;.;.;.;.;.;.;.;.;.;.;.;.;.;.;.;.;.;.;.;.;.;.;.;.;.;.;.;.;.;.;.;.;.;.7 O , ;.;.;.;.;.;.;.;.;.;.;.;.;.;.",
";.;.;.;.;.b . W ;.;.;.;.;.;.;.;.;.;.;.;.;.;.;.;.;.;.;.;.;.;.;.;.;.;.;.;.;.;.;.;.;.;.;.;.;.;.;.;.;.;.;.;.;.;.;.;.;.;.;.;.;.;.< O 1 ;.;.;.;.;.;.;.;.;.;.;.;.;.;.;.",
";.;.;.;.;.b . W ;.;.;.;.;.;.;.;.;.;.;.;.;.;.;.;.;.;.;.;.;.;.;.;.;.;.;.;.;.;.;.;.;.;.;.;.;.;.;.;.;.;.;.;.;.;.;.;.;.;.;.;.W & O 8 ;.;.;.;.;.;.;.;.;.;.;.;.;.;.;.;.",
";.;.;.;.;.b . W ;.;.;.;.;.;.;.;.;.;.;.;.;.;.;.;.;.;.;.;.;.;.;.;.;.;.;.;.;.;.;.;.;.;.;.;.;.;.;.;.;.;.;.;.;.;.;.;.;.;.;.a + O g ;.;.;.;.;.;.;.;.;.;.;.;.;.;.;.;.;.",
";.;.;.;.;.b . W ;.;.;.;.;.;.;.;.;.;.;.;.;.;.;.;.;.;.;.;.;.;.;.;.;.;.;.;.;.;.;.;.;.;.;.;.;.;.;.;.;.;.;.;.;.;.;.;.;.L = o * E ;.;.;.;.;.;.;.;.;.;.;.;.;.;.;.;.;.;.",
";.;.;.;.;.b . W ;.;.;.;.;.;.;.;.;.;.;.;.;.;.;.;.;.;.;.;.;.;.;.;.;.;.;.;.;.;.;.;.;.;.;.;.;.;.;.;.;.;.;.;.;.;.;.E 1 o + y ;.;.;.;.;.;.;.;.;.;.;.;.;.;.;.;.;.;.;.;.",
";.;.;.;.;.b . W ;.;.;.;.;.;.;.;.;.;.;.;.;.;.;.;.;.;.;.;.;.;.;.;.;.;.;.;.;.;.;.;.;.;.;.;.;.;.;.;.;.;.;.;.;.B : o O 4 ] ;.;.;.;.;.;.;.;.;.;.;.;.;.;.;.;.;.;.;.;.;.",
";.;.;.;.;.b . Y ;.;.;.;.;.;.;.;.;.;.;.;.;.;.;.;.;.;.;.;.;.;.;.;.;.;.;.;.;.;.;.;.;.;.;.;.;.;.;.;.;.#.Z 6 @ X + 6 / ;.;.;.;.;.;.;.;.;.;.;.;.;.;.;.;.;.;.;.;.;.;.;.",
";.;.;.;.;.J o 8 ) | | | | | | | | | | | | | | | | | | | | | | | | | | | | | | | | | | _ R B f 5 & O X o - j $.;.;.;.;.;.;.;.;.;.;.;.;.;.;.;.;.;.;.;.;.;.;.;.;.;.",
";.;.;.;.;.;.< + O O O O O O O O O O O O O O O O O O O O O O O O O O O O O O O O O O O O o o o @ * 7 n X.;.;.;.;.;.;.;.;.;.;.;.;.;.;.;.;.;.;.;.;.;.;.;.;.;.;.;.;.",
";.;.;.;.;.;.-.y $ # # # # # # # # # # # # # # # # # # # # # # # # # # # # # # # # # % > 9 h H  .;.;.;.;.;.;.;.;.;.;.;.;.;.;.;.;.;.;.;.;.;.;.;.;.;.;.;.;.;.;.;.;."
};
